<mxfile host="65bd71144e">
    <diagram id="V0We9pYdJLXd2o_TcKHi" name="Page-1">
        <mxGraphModel dx="1342" dy="2352" grid="1" gridSize="10" guides="1" tooltips="1" connect="1" arrows="1" fold="1" page="1" pageScale="1" pageWidth="850" pageHeight="1100" math="0" shadow="0">
            <root>
                <mxCell id="0"/>
                <mxCell id="1" parent="0"/>
                <mxCell id="12" style="edgeStyle=none;html=1;exitX=0;exitY=0;exitDx=0;exitDy=0;entryX=0.75;entryY=0;entryDx=0;entryDy=0;fontSize=14;" parent="1" source="2" target="3" edge="1">
                    <mxGeometry relative="1" as="geometry"/>
                </mxCell>
                <mxCell id="13" style="edgeStyle=none;html=1;exitX=1;exitY=0;exitDx=0;exitDy=0;entryX=0.5;entryY=0;entryDx=0;entryDy=0;fontSize=14;" parent="1" source="2" target="4" edge="1">
                    <mxGeometry relative="1" as="geometry"/>
                </mxCell>
                <mxCell id="15" style="edgeStyle=none;html=1;exitX=0.5;exitY=1;exitDx=0;exitDy=0;entryX=0.5;entryY=0;entryDx=0;entryDy=0;fontSize=14;" parent="1" source="2" target="5" edge="1">
                    <mxGeometry relative="1" as="geometry"/>
                </mxCell>
                <mxCell id="2" value="App" style="rounded=1;whiteSpace=wrap;html=1;verticalAlign=top;fontSize=16;" parent="1" vertex="1">
                    <mxGeometry x="-330" y="-390" width="160" height="130" as="geometry"/>
                </mxCell>
                <mxCell id="3" value="AdminNav" style="rounded=1;whiteSpace=wrap;html=1;fontSize=18;verticalAlign=top;" parent="1" vertex="1">
                    <mxGeometry x="-620" y="-330" width="270" height="70" as="geometry"/>
                </mxCell>
                <mxCell id="14" style="edgeStyle=none;html=1;exitX=0.5;exitY=1;exitDx=0;exitDy=0;entryX=0.5;entryY=0;entryDx=0;entryDy=0;fontSize=14;" parent="1" source="4" target="8" edge="1">
                    <mxGeometry relative="1" as="geometry"/>
                </mxCell>
                <mxCell id="4" value="QList&lt;br&gt;setQuestions&lt;br&gt;&lt;span style=&quot;white-space: pre;&quot;&gt;&#9;&lt;/span&gt;" style="rounded=1;whiteSpace=wrap;html=1;fontSize=14;" parent="1" vertex="1">
                    <mxGeometry x="-140" y="-340" width="210" height="100" as="geometry"/>
                </mxCell>
                <mxCell id="5" value="QForm" style="rounded=1;whiteSpace=wrap;html=1;fontSize=19;horizontal=1;verticalAlign=top;" parent="1" vertex="1">
                    <mxGeometry x="-580" y="-140" width="220" height="130" as="geometry"/>
                </mxCell>
                <mxCell id="8" value="QItem" style="rounded=1;whiteSpace=wrap;html=1;fontSize=14;" parent="1" vertex="1">
                    <mxGeometry x="-180" y="-210" width="190" height="120" as="geometry"/>
                </mxCell>
                <mxCell id="9" value="setPage" style="text;html=1;strokeColor=none;fillColor=none;align=center;verticalAlign=middle;whiteSpace=wrap;rounded=0;fontSize=14;" parent="1" vertex="1">
                    <mxGeometry x="-240" y="-360" width="60" height="30" as="geometry"/>
                </mxCell>
                <mxCell id="16" value="handleSubmit" style="text;html=1;strokeColor=none;fillColor=none;align=center;verticalAlign=middle;whiteSpace=wrap;rounded=0;fontSize=14;" parent="1" vertex="1">
                    <mxGeometry x="-480" y="-60" width="60" height="30" as="geometry"/>
                </mxCell>
                <mxCell id="18" value="setFormData" style="text;html=1;strokeColor=none;fillColor=none;align=center;verticalAlign=middle;whiteSpace=wrap;rounded=0;fontSize=14;" parent="1" vertex="1">
                    <mxGeometry x="-480" y="-80" width="60" height="30" as="geometry"/>
                </mxCell>
                <mxCell id="34" value="handleDelete" style="text;html=1;strokeColor=none;fillColor=none;align=center;verticalAlign=middle;whiteSpace=wrap;rounded=0;fontSize=14;" parent="1" vertex="1">
                    <mxGeometry x="-90" y="-290" width="60" height="30" as="geometry"/>
                </mxCell>
            </root>
        </mxGraphModel>
    </diagram>
</mxfile>